<svg width="12" height="12" viewBox="0 0 12 12" fill="none" xmlns="http://www.w3.org/2000/svg">
<path d="M2.46446 2.38124C1.32544 3.52026 1.35182 5.39338 2.5234 6.56496L3.65491 7.69645L3.87005 7.65797L3.87048 7.65789L3.8765 7.65667C3.88273 7.65536 3.89341 7.65303 3.90825 7.6495C3.93794 7.64239 3.98428 7.63037 4.04521 7.61169C4.16706 7.57433 4.34709 7.51041 4.56867 7.40603C5.01146 7.19745 5.62136 6.82698 6.2657 6.18264C6.90999 5.53835 7.28055 4.92838 7.48913 4.48553C7.59355 4.26392 7.65751 4.08386 7.69492 3.96199C7.7136 3.90106 7.72561 3.85469 7.73272 3.825C7.73625 3.81015 7.73858 3.79948 7.73989 3.79323L7.74111 3.78723L7.74119 3.78679L7.77972 3.57172L6.64818 2.44017C5.4766 1.2686 3.60349 1.24221 2.46446 2.38124Z" fill="white"/>
<path d="M8.33301 4.125C8.32886 4.13915 8.32441 4.15396 8.31966 4.16943C8.27414 4.31794 8.19953 4.52639 8.08134 4.77732C7.84474 5.27958 7.43401 5.95075 6.73388 6.65088C6.03379 7.35097 5.36262 7.7617 4.86042 7.99821C4.60951 8.1164 4.40108 8.19097 4.25258 8.23649C4.23715 8.24124 4.22235 8.24569 4.20822 8.2498L5.35183 9.39339C6.52341 10.565 8.39651 10.5914 9.53553 9.45232C10.6746 8.31329 10.6482 6.4402 9.4766 5.26862L8.33301 4.125Z" fill="#7821E7"/>
</svg>
