<svg width="125" height="16" viewBox="0 0 125 16" fill="none" xmlns="http://www.w3.org/2000/svg">
<path d="M4.55031 15.5136L0.607435 15.5351C0.535812 15.5351 0.5 15.4993 0.5 15.4277L0.542974 0.311562C0.542974 0.254263 0.571623 0.225614 0.628922 0.225614L4.74369 0.204127C5.5602 0.18264 6.29792 0.368861 6.95686 0.76279C7.62295 1.15672 8.15297 1.69031 8.5469 2.36357C8.94799 3.02967 9.14853 3.76739 9.14853 4.57674V10.8939C9.14853 11.7391 8.94441 12.5126 8.53615 13.2145C8.12074 13.9093 7.56924 14.4644 6.88165 14.8798C6.19407 15.288 5.41695 15.4993 4.55031 15.5136ZM4.74369 2.83629L3.20737 2.85778L3.18588 12.8278H4.55031C5.09464 12.8278 5.55304 12.638 5.92548 12.2584C6.29792 11.8788 6.48414 11.4239 6.48414 10.8939V4.55525C6.48414 4.0897 6.31224 3.68503 5.96845 3.34123C5.62466 2.99028 5.21641 2.82196 4.74369 2.83629Z" fill="white"/>
<path d="M13.4782 15.5351H10.9857C10.9141 15.5351 10.8782 15.4993 10.8782 15.4277L10.8997 0.311562C10.8997 0.254263 10.9284 0.225614 10.9857 0.225614H13.4567C13.514 0.225614 13.5426 0.254263 13.5426 0.311562L13.5641 15.4277C13.5641 15.4993 13.5355 15.5351 13.4782 15.5351Z" fill="white"/>
<path d="M19.2367 15.75C18.456 15.75 17.7362 15.5495 17.0773 15.1484C16.4255 14.7473 15.9026 14.2137 15.5087 13.5476C15.1219 12.8743 14.9285 12.1366 14.9285 11.3344V10.3245C14.9285 10.2457 14.9644 10.2063 15.036 10.2063H17.507C17.5643 10.2063 17.5929 10.2457 17.5929 10.3245V11.3344C17.5929 11.8143 17.7541 12.2297 18.0764 12.5807C18.3987 12.9245 18.7855 13.0963 19.2367 13.0963C19.6951 13.0963 20.0854 12.9209 20.4077 12.5699C20.73 12.2118 20.8912 11.8 20.8912 11.3344C20.8912 10.7972 20.5402 10.3281 19.8383 9.92701C19.7237 9.85539 19.5733 9.76944 19.3871 9.66917C19.208 9.56173 18.9932 9.43997 18.7425 9.30389C18.4918 9.1678 18.2483 9.0353 18.0119 8.90638C17.7756 8.77029 17.5464 8.64137 17.3243 8.51961C16.5222 8.0469 15.9241 7.456 15.5302 6.74693C15.1434 6.0307 14.95 5.22851 14.95 4.34038C14.95 3.52387 15.1506 2.78615 15.5517 2.12722C15.9528 1.47544 16.4756 0.959754 17.1202 0.58015C17.772 0.193383 18.4775 0 19.2367 0C20.0174 0 20.7336 0.193383 21.3854 0.58015C22.0372 0.974079 22.5564 1.49693 22.9432 2.1487C23.3371 2.80048 23.5341 3.53104 23.5341 4.34038V6.14529C23.5341 6.20259 23.5055 6.23124 23.4482 6.23124H20.9771C20.9198 6.23124 20.8912 6.20259 20.8912 6.14529L20.8697 4.34038C20.8697 3.82469 20.7086 3.4057 20.3863 3.08339C20.0639 2.76108 19.6808 2.59993 19.2367 2.59993C18.7855 2.59993 18.3987 2.77183 18.0764 3.11562C17.7541 3.45941 17.5929 3.86767 17.5929 4.34038C17.5929 4.82026 17.6932 5.22135 17.8938 5.54366C18.1015 5.86596 18.4775 6.17394 19.0218 6.4676C19.0791 6.49625 19.2116 6.56787 19.4193 6.68247C19.627 6.79707 19.8562 6.92599 20.1069 7.06924C20.3648 7.20532 20.5975 7.33066 20.8053 7.44526C21.013 7.55269 21.1383 7.61716 21.1813 7.63864C21.9118 8.0469 22.4884 8.54826 22.911 9.14273C23.3407 9.73721 23.5556 10.4678 23.5556 11.3344C23.5556 12.1724 23.3622 12.9245 22.9754 13.5906C22.5815 14.2567 22.0587 14.7831 21.4069 15.1698C20.7551 15.5566 20.0317 15.75 19.2367 15.75Z" fill="white"/>
<path d="M32.2793 15.5351H25.1671C25.1098 15.5351 25.0812 15.4993 25.0812 15.4277L25.1027 0.311562C25.1027 0.254263 25.1313 0.225614 25.1886 0.225614H32.2578C32.3151 0.225614 32.3438 0.261426 32.3438 0.333049V2.79331C32.3438 2.85061 32.3151 2.87926 32.2578 2.87926H27.7456V6.31719H32.2578C32.3151 6.31719 32.3438 6.34584 32.3438 6.40314L32.3653 8.89563C32.3653 8.95293 32.3366 8.98158 32.2793 8.98158H27.7456V12.8278H32.2793C32.3366 12.8278 32.3653 12.8636 32.3653 12.9352V15.4492C32.3653 15.5065 32.3366 15.5351 32.2793 15.5351Z" fill="white"/>
<path d="M33.5793 15.4277L36.3081 0.311562C36.3225 0.254263 36.3583 0.225614 36.4156 0.225614H39.6064C39.6637 0.225614 39.6995 0.254263 39.7138 0.311562L42.3353 15.4277C42.3424 15.4993 42.3138 15.5351 42.2493 15.5351H39.8105C39.7389 15.5351 39.6995 15.4993 39.6924 15.4277L39.456 13.8162H36.4586L36.2222 15.4277C36.215 15.4993 36.1792 15.5351 36.1148 15.5351H33.6652C33.6079 15.5351 33.5793 15.4993 33.5793 15.4277ZM37.8874 5.28581L36.899 11.4633H39.0155L38.1131 5.28581L37.9841 4.4693L37.8874 5.28581Z" fill="white"/>
<path d="M47.4492 15.75C46.6685 15.75 45.9487 15.5495 45.2897 15.1484C44.638 14.7473 44.1151 14.2137 43.7212 13.5476C43.3344 12.8743 43.141 12.1366 43.141 11.3344V10.3245C43.141 10.2457 43.1768 10.2063 43.2485 10.2063H45.7195C45.7768 10.2063 45.8054 10.2457 45.8054 10.3245V11.3344C45.8054 11.8143 45.9666 12.2297 46.2889 12.5807C46.6112 12.9245 46.9979 13.0963 47.4492 13.0963C47.9076 13.0963 48.2979 12.9209 48.6202 12.5699C48.9425 12.2118 49.1037 11.8 49.1037 11.3344C49.1037 10.7972 48.7527 10.3281 48.0508 9.92701C47.9362 9.85539 47.7858 9.76944 47.5996 9.66917C47.4205 9.56173 47.2057 9.43997 46.955 9.30389C46.7043 9.1678 46.4608 9.0353 46.2244 8.90638C45.9881 8.77029 45.7589 8.64137 45.5368 8.51961C44.7347 8.0469 44.1366 7.456 43.7427 6.74693C43.3559 6.0307 43.1625 5.22851 43.1625 4.34038C43.1625 3.52387 43.3631 2.78615 43.7642 2.12722C44.1652 1.47544 44.6881 0.959754 45.3327 0.58015C45.9845 0.193383 46.69 0 47.4492 0C48.2299 0 48.9461 0.193383 49.5979 0.58015C50.2497 0.974079 50.7689 1.49693 51.1557 2.1487C51.5496 2.80048 51.7466 3.53104 51.7466 4.34038V6.14529C51.7466 6.20259 51.7179 6.23124 51.6606 6.23124H49.1896C49.1323 6.23124 49.1037 6.20259 49.1037 6.14529L49.0822 4.34038C49.0822 3.82469 48.921 3.4057 48.5987 3.08339C48.2764 2.76108 47.8932 2.59993 47.4492 2.59993C46.9979 2.59993 46.6112 2.77183 46.2889 3.11562C45.9666 3.45941 45.8054 3.86767 45.8054 4.34038C45.8054 4.82026 45.9057 5.22135 46.1062 5.54366C46.3139 5.86596 46.69 6.17394 47.2343 6.4676C47.2916 6.49625 47.4241 6.56787 47.6318 6.68247C47.8395 6.79707 48.0687 6.92599 48.3194 7.06924C48.5772 7.20532 48.81 7.33066 49.0177 7.44526C49.2254 7.55269 49.3508 7.61716 49.3938 7.63864C50.1243 8.0469 50.7009 8.54826 51.1235 9.14273C51.5532 9.73721 51.7681 10.4678 51.7681 11.3344C51.7681 12.1724 51.5747 12.9245 51.1879 13.5906C50.794 14.2567 50.2711 14.7831 49.6194 15.1698C48.9676 15.5566 48.2442 15.75 47.4492 15.75Z" fill="white"/>
<path d="M60.4918 15.5351H53.3796C53.3223 15.5351 53.2937 15.4993 53.2937 15.4277L53.3151 0.311562C53.3151 0.254263 53.3438 0.225614 53.4011 0.225614H60.4703C60.5276 0.225614 60.5563 0.261426 60.5563 0.333049V2.79331C60.5563 2.85061 60.5276 2.87926 60.4703 2.87926H55.958V6.31719H60.4703C60.5276 6.31719 60.5563 6.34584 60.5563 6.40314L60.5778 8.89563C60.5778 8.95293 60.5491 8.98158 60.4918 8.98158H55.958V12.8278H60.4918C60.5491 12.8278 60.5778 12.8636 60.5778 12.9352V15.4492C60.5778 15.5065 60.5491 15.5351 60.4918 15.5351Z" fill="white"/>
<path d="M66.863 15.8366L64.0759 15.8515C64.0253 15.8515 64 15.8267 64 15.7772L64.0304 7.2302C64.0304 7.19059 64.0506 7.17079 64.0911 7.17079L66.9997 7.15594C67.5769 7.14109 68.0984 7.2698 68.5641 7.54208C69.035 7.81436 69.4096 8.18317 69.6881 8.64851C69.9716 9.10891 70.1134 9.61881 70.1134 10.1782V12.6436C70.1134 13.2277 69.9691 13.7624 69.6805 14.2475C69.3869 14.7277 68.997 15.1114 68.511 15.3985C68.0249 15.6807 67.4756 15.8267 66.863 15.8366ZM66.9997 8.97525L65.9137 8.9901L65.8986 13.9802H66.863C67.2478 13.9802 67.5718 13.849 67.8351 13.5866C68.0984 13.3243 68.23 13.0099 68.23 12.6436V10.1634C68.23 9.84158 68.1085 9.56188 67.8655 9.32426C67.6225 9.08168 67.3339 8.96535 66.9997 8.97525Z" fill="white"/>
<path d="M73.1738 15.8515H71.412C71.3614 15.8515 71.336 15.8267 71.336 15.7772L71.3512 7.2302C71.3512 7.19059 71.3715 7.17079 71.412 7.17079H73.1587C73.1992 7.17079 73.2194 7.19059 73.2194 7.2302L73.2346 15.7772C73.2346 15.8267 73.2143 15.8515 73.1738 15.8515Z" fill="white"/>
<path d="M77.4646 16C76.9026 16 76.3887 15.8614 75.923 15.5842C75.4622 15.3069 75.0952 14.9356 74.8218 14.4703C74.5535 14 74.4193 13.4777 74.4193 12.9035L74.4345 10.0594C74.4345 9.49505 74.5661 8.98515 74.8294 8.5297C75.0927 8.06931 75.4547 7.7005 75.9154 7.42327C76.3811 7.14109 76.8976 7 77.4646 7C78.0418 7 78.5556 7.13614 79.0062 7.40842C79.4619 7.68069 79.8239 8.0495 80.0922 8.51485C80.3656 8.97525 80.5023 9.4901 80.5023 10.0594V10.7574C80.5023 10.797 80.482 10.8168 80.4415 10.8168H78.6949C78.6544 10.8168 78.6341 10.797 78.6341 10.7574V10.0594C78.6341 9.72277 78.5227 9.43317 78.3 9.19059C78.0772 8.94802 77.7987 8.82673 77.4646 8.82673C77.095 8.82673 76.8115 8.95049 76.614 9.19802C76.4166 9.44554 76.3179 9.73267 76.3179 10.0594V12.9035C76.3179 13.2748 76.4292 13.5792 76.652 13.8168C76.8748 14.0495 77.1456 14.1658 77.4646 14.1658C77.7987 14.1658 78.0772 14.0371 78.3 13.7797C78.5227 13.5173 78.6341 13.2252 78.6341 12.9035V12.198C78.6341 12.1584 78.6544 12.1386 78.6949 12.1386H80.4567C80.4972 12.1386 80.5175 12.1584 80.5175 12.198V12.9035C80.5175 13.4728 80.3808 13.9926 80.1074 14.4629C79.8289 14.9282 79.4619 15.302 79.0062 15.5842C78.5506 15.8614 78.0367 16 77.4646 16Z" fill="white"/>
<path d="M84.9677 15.8515H83.2134C83.1679 15.8515 83.1451 15.8267 83.1451 15.7772V9.00495H81.125C81.0744 9.00495 81.0491 8.9802 81.0491 8.93069L81.0643 7.2302C81.0643 7.19059 81.0845 7.17079 81.125 7.17079H87.0333C87.089 7.17079 87.1169 7.19059 87.1169 7.2302V8.93069C87.1169 8.9802 87.0966 9.00495 87.0561 9.00495H85.0133L85.0285 15.7772C85.0285 15.8267 85.0082 15.8515 84.9677 15.8515Z" fill="white"/>
<path d="M89.7141 15.8515H87.9522C87.9016 15.8515 87.8763 15.8267 87.8763 15.7772L87.8915 7.2302C87.8915 7.19059 87.9117 7.17079 87.9522 7.17079H89.6989C89.7394 7.17079 89.7597 7.19059 89.7597 7.2302L89.7749 15.7772C89.7749 15.8267 89.7546 15.8515 89.7141 15.8515Z" fill="white"/>
<path d="M94.02 16C93.4682 16 92.9594 15.8614 92.4936 15.5842C92.0329 15.3069 91.6608 14.9381 91.3772 14.4777C91.0988 14.0124 90.9596 13.5025 90.9596 12.948L90.9748 10.0297C90.9748 9.46535 91.114 8.95792 91.3924 8.50743C91.6658 8.05198 92.0354 7.68812 92.5012 7.41584C92.967 7.13861 93.4733 7 94.02 7C94.5871 7 95.0959 7.13614 95.5465 7.40842C96.0021 7.68069 96.3667 8.04703 96.6401 8.50743C96.9185 8.96287 97.0577 9.4703 97.0577 10.0297L97.0729 12.948C97.0729 13.5025 96.9362 14.0099 96.6628 14.4703C96.3844 14.9356 96.0148 15.3069 95.5541 15.5842C95.0934 15.8614 94.582 16 94.02 16ZM94.02 14.1658C94.3339 14.1658 94.6073 14.0421 94.8402 13.7946C95.0731 13.5421 95.1896 13.2599 95.1896 12.948L95.1744 10.0297C95.1744 9.69307 95.0655 9.40842 94.8478 9.17574C94.6301 8.94307 94.3542 8.82673 94.02 8.82673C93.7011 8.82673 93.4277 8.94059 93.1999 9.16832C92.972 9.39604 92.8581 9.68317 92.8581 10.0297V12.948C92.8581 13.2797 92.972 13.5668 93.1999 13.8094C93.4277 14.047 93.7011 14.1658 94.02 14.1658Z" fill="white"/>
<path d="M99.9436 15.8515H98.3867C98.3057 15.8515 98.2652 15.8168 98.2652 15.7475L98.25 7.2896C98.25 7.2104 98.2905 7.17079 98.3715 7.17079H99.7765L102.404 11.2624L102.328 7.2896C102.328 7.2104 102.374 7.17079 102.465 7.17079H104.006C104.067 7.17079 104.098 7.2104 104.098 7.2896L104.113 15.7624C104.113 15.8218 104.087 15.8515 104.037 15.8515H102.67L99.9739 12.1535L100.088 15.7327C100.088 15.8119 100.04 15.8515 99.9436 15.8515Z" fill="white"/>
<path d="M104.941 15.7772L106.87 7.2302C106.88 7.19059 106.905 7.17079 106.945 7.17079H109.201C109.241 7.17079 109.267 7.19059 109.277 7.2302L111.13 15.7772C111.135 15.8267 111.115 15.8515 111.069 15.8515H109.345C109.295 15.8515 109.267 15.8267 109.262 15.7772L109.095 14.6634H106.976L106.809 15.7772C106.804 15.8267 106.778 15.8515 106.733 15.8515H105.001C104.961 15.8515 104.941 15.8267 104.941 15.7772ZM107.986 10.6683L107.287 13.0371H108.783L108.145 10.6683L108.054 10.104L107.986 10.6683Z" fill="white"/>
<path d="M113.925 15.8515H112.163C112.122 15.8515 112.102 15.8267 112.102 15.7772L112.132 7.2302C112.132 7.19059 112.153 7.17079 112.193 7.17079H115.337C115.899 7.17079 116.415 7.30446 116.886 7.57178C117.357 7.83911 117.732 8.19802 118.01 8.64851C118.294 9.09901 118.436 9.60891 118.436 10.1782C118.436 10.5495 118.377 10.8861 118.261 11.1881C118.144 11.4901 118.008 11.745 117.851 11.953C117.699 12.1609 117.56 12.3144 117.433 12.4134C117.995 13.0223 118.276 13.7376 118.276 14.5594L118.291 15.7772C118.291 15.8267 118.266 15.8515 118.215 15.8515H116.453C116.413 15.8515 116.393 15.8366 116.393 15.8069V14.5594C116.393 14.1931 116.261 13.8762 115.998 13.6089C115.735 13.3416 115.41 13.2079 115.026 13.2079H114L113.985 15.7772C113.985 15.8267 113.965 15.8515 113.925 15.8515ZM115.337 8.9901H114V11.3812H115.337C115.656 11.3812 115.94 11.2649 116.188 11.0322C116.441 10.7995 116.567 10.5149 116.567 10.1782C116.567 9.85644 116.446 9.57921 116.203 9.34653C115.96 9.10891 115.671 8.9901 115.337 8.9901Z" fill="white"/>
<path d="M122.848 15.8515H121.063C121.028 15.8515 121.01 15.8317 121.01 15.7921L121.025 11.4703L118.944 7.2302C118.934 7.19059 118.949 7.17079 118.99 7.17079H120.721C120.772 7.17079 120.802 7.19059 120.813 7.2302L121.959 9.42079L123.129 7.2302C123.139 7.19059 123.164 7.17079 123.205 7.17079H124.951C124.992 7.17079 125.007 7.19059 124.997 7.2302L122.893 11.4109L122.909 15.7921C122.909 15.8317 122.888 15.8515 122.848 15.8515Z" fill="white"/>
</svg>
