<svg width="61" height="24" viewBox="0 0 61 24" fill="none" xmlns="http://www.w3.org/2000/svg">
<path d="M4.05031 15.5136L0.107435 15.5351C0.0358117 15.5351 0 15.4993 0 15.4277L0.0429741 0.311562C0.0429741 0.254263 0.0716235 0.225614 0.128922 0.225614L4.24369 0.204127C5.0602 0.18264 5.79792 0.368861 6.45686 0.76279C7.12295 1.15672 7.65297 1.69031 8.0469 2.36357C8.44799 3.02967 8.64853 3.76739 8.64853 4.57674V10.8939C8.64853 11.7391 8.44441 12.5126 8.03615 13.2145C7.62074 13.9093 7.06924 14.4644 6.38165 14.8798C5.69407 15.288 4.91695 15.4993 4.05031 15.5136ZM4.24369 2.83629L2.70737 2.85778L2.68588 12.8278H4.05031C4.59464 12.8278 5.05304 12.638 5.42548 12.2584C5.79792 11.8788 5.98414 11.4239 5.98414 10.8939V4.55525C5.98414 4.0897 5.81224 3.68503 5.46845 3.34123C5.12466 2.99028 4.71641 2.82196 4.24369 2.83629Z" fill="white"/>
<path d="M12.9782 15.5351H10.4857C10.4141 15.5351 10.3782 15.4993 10.3782 15.4277L10.3997 0.311562C10.3997 0.254263 10.4284 0.225614 10.4857 0.225614H12.9567C13.014 0.225614 13.0426 0.254263 13.0426 0.311562L13.0641 15.4277C13.0641 15.4993 13.0355 15.5351 12.9782 15.5351Z" fill="white"/>
<path d="M18.7367 15.75C17.956 15.75 17.2362 15.5495 16.5773 15.1484C15.9255 14.7473 15.4026 14.2137 15.0087 13.5476C14.6219 12.8743 14.4285 12.1366 14.4285 11.3344V10.3245C14.4285 10.2457 14.4644 10.2063 14.536 10.2063H17.007C17.0643 10.2063 17.0929 10.2457 17.0929 10.3245V11.3344C17.0929 11.8143 17.2541 12.2297 17.5764 12.5807C17.8987 12.9245 18.2855 13.0963 18.7367 13.0963C19.1951 13.0963 19.5854 12.9209 19.9077 12.5699C20.23 12.2118 20.3912 11.8 20.3912 11.3344C20.3912 10.7972 20.0402 10.3281 19.3383 9.92701C19.2237 9.85539 19.0733 9.76944 18.8871 9.66917C18.708 9.56173 18.4932 9.43997 18.2425 9.30389C17.9918 9.1678 17.7483 9.0353 17.5119 8.90638C17.2756 8.77029 17.0464 8.64137 16.8243 8.51961C16.0222 8.0469 15.4241 7.456 15.0302 6.74693C14.6434 6.0307 14.45 5.22851 14.45 4.34038C14.45 3.52387 14.6506 2.78615 15.0517 2.12722C15.4528 1.47544 15.9756 0.959754 16.6202 0.58015C17.272 0.193383 17.9775 0 18.7367 0C19.5174 0 20.2336 0.193383 20.8854 0.58015C21.5372 0.974079 22.0564 1.49693 22.4432 2.1487C22.8371 2.80048 23.0341 3.53104 23.0341 4.34038V6.14529C23.0341 6.20259 23.0055 6.23124 22.9482 6.23124H20.4771C20.4198 6.23124 20.3912 6.20259 20.3912 6.14529L20.3697 4.34038C20.3697 3.82469 20.2086 3.4057 19.8863 3.08339C19.5639 2.76108 19.1808 2.59993 18.7367 2.59993C18.2855 2.59993 17.8987 2.77183 17.5764 3.11562C17.2541 3.45941 17.0929 3.86767 17.0929 4.34038C17.0929 4.82026 17.1932 5.22135 17.3938 5.54366C17.6015 5.86596 17.9775 6.17394 18.5218 6.4676C18.5791 6.49625 18.7116 6.56787 18.9193 6.68247C19.127 6.79707 19.3562 6.92599 19.6069 7.06924C19.8648 7.20532 20.0975 7.33066 20.3053 7.44526C20.513 7.55269 20.6383 7.61716 20.6813 7.63864C21.4118 8.0469 21.9884 8.54826 22.411 9.14273C22.8407 9.73721 23.0556 10.4678 23.0556 11.3344C23.0556 12.1724 22.8622 12.9245 22.4754 13.5906C22.0815 14.2567 21.5587 14.7831 20.9069 15.1698C20.2551 15.5566 19.5317 15.75 18.7367 15.75Z" fill="white"/>
<path d="M31.7793 15.5351H24.6671C24.6098 15.5351 24.5812 15.4993 24.5812 15.4277L24.6027 0.311562C24.6027 0.254263 24.6313 0.225614 24.6886 0.225614H31.7578C31.8151 0.225614 31.8438 0.261426 31.8438 0.333049V2.79331C31.8438 2.85061 31.8151 2.87926 31.7578 2.87926H27.2456V6.31719H31.7578C31.8151 6.31719 31.8438 6.34584 31.8438 6.40314L31.8653 8.89563C31.8653 8.95293 31.8366 8.98158 31.7793 8.98158H27.2456V12.8278H31.7793C31.8366 12.8278 31.8653 12.8636 31.8653 12.9352V15.4492C31.8653 15.5065 31.8366 15.5351 31.7793 15.5351Z" fill="white"/>
<path d="M33.0793 15.4277L35.8081 0.311562C35.8225 0.254263 35.8583 0.225614 35.9156 0.225614H39.1064C39.1637 0.225614 39.1995 0.254263 39.2138 0.311562L41.8353 15.4277C41.8424 15.4993 41.8138 15.5351 41.7493 15.5351H39.3105C39.2389 15.5351 39.1995 15.4993 39.1924 15.4277L38.956 13.8162H35.9586L35.7222 15.4277C35.715 15.4993 35.6792 15.5351 35.6148 15.5351H33.1652C33.1079 15.5351 33.0793 15.4993 33.0793 15.4277ZM37.3874 5.28581L36.399 11.4633H38.5155L37.6131 5.28581L37.4841 4.4693L37.3874 5.28581Z" fill="white"/>
<path d="M46.9492 15.75C46.1685 15.75 45.4487 15.5495 44.7897 15.1484C44.138 14.7473 43.6151 14.2137 43.2212 13.5476C42.8344 12.8743 42.641 12.1366 42.641 11.3344V10.3245C42.641 10.2457 42.6768 10.2063 42.7485 10.2063H45.2195C45.2768 10.2063 45.3054 10.2457 45.3054 10.3245V11.3344C45.3054 11.8143 45.4666 12.2297 45.7889 12.5807C46.1112 12.9245 46.4979 13.0963 46.9492 13.0963C47.4076 13.0963 47.7979 12.9209 48.1202 12.5699C48.4425 12.2118 48.6037 11.8 48.6037 11.3344C48.6037 10.7972 48.2527 10.3281 47.5508 9.92701C47.4362 9.85539 47.2858 9.76944 47.0996 9.66917C46.9205 9.56173 46.7057 9.43997 46.455 9.30389C46.2043 9.1678 45.9608 9.0353 45.7244 8.90638C45.4881 8.77029 45.2589 8.64137 45.0368 8.51961C44.2347 8.0469 43.6366 7.456 43.2427 6.74693C42.8559 6.0307 42.6625 5.22851 42.6625 4.34038C42.6625 3.52387 42.8631 2.78615 43.2642 2.12722C43.6652 1.47544 44.1881 0.959754 44.8327 0.58015C45.4845 0.193383 46.19 0 46.9492 0C47.7299 0 48.4461 0.193383 49.0979 0.58015C49.7497 0.974079 50.2689 1.49693 50.6557 2.1487C51.0496 2.80048 51.2466 3.53104 51.2466 4.34038V6.14529C51.2466 6.20259 51.2179 6.23124 51.1606 6.23124H48.6896C48.6323 6.23124 48.6037 6.20259 48.6037 6.14529L48.5822 4.34038C48.5822 3.82469 48.421 3.4057 48.0987 3.08339C47.7764 2.76108 47.3932 2.59993 46.9492 2.59993C46.4979 2.59993 46.1112 2.77183 45.7889 3.11562C45.4666 3.45941 45.3054 3.86767 45.3054 4.34038C45.3054 4.82026 45.4057 5.22135 45.6062 5.54366C45.8139 5.86596 46.19 6.17394 46.7343 6.4676C46.7916 6.49625 46.9241 6.56787 47.1318 6.68247C47.3395 6.79707 47.5687 6.92599 47.8194 7.06924C48.0772 7.20532 48.31 7.33066 48.5177 7.44526C48.7254 7.55269 48.8508 7.61716 48.8938 7.63864C49.6243 8.0469 50.2009 8.54826 50.6235 9.14273C51.0532 9.73721 51.2681 10.4678 51.2681 11.3344C51.2681 12.1724 51.0747 12.9245 50.6879 13.5906C50.294 14.2567 49.7711 14.7831 49.1194 15.1698C48.4676 15.5566 47.7442 15.75 46.9492 15.75Z" fill="white"/>
<path d="M59.9918 15.5351H52.8796C52.8223 15.5351 52.7937 15.4993 52.7937 15.4277L52.8151 0.311562C52.8151 0.254263 52.8438 0.225614 52.9011 0.225614H59.9703C60.0276 0.225614 60.0563 0.261426 60.0563 0.333049V2.79331C60.0563 2.85061 60.0276 2.87926 59.9703 2.87926H55.458V6.31719H59.9703C60.0276 6.31719 60.0563 6.34584 60.0563 6.40314L60.0778 8.89563C60.0778 8.95293 60.0491 8.98158 59.9918 8.98158H55.458V12.8278H59.9918C60.0491 12.8278 60.0778 12.8636 60.0778 12.9352V15.4492C60.0778 15.5065 60.0491 15.5351 59.9918 15.5351Z" fill="white"/>
<path d="M2.16139 23.5981L0.0573313 23.6095C0.0191104 23.6095 0 23.5904 0 23.5522L0.0229325 16.9534C0.0229325 16.9228 0.0382209 16.9075 0.0687975 16.9075L2.26459 16.896C2.7003 16.8846 3.09398 16.9839 3.44561 17.1942C3.80106 17.4044 4.0839 17.6891 4.29411 18.0484C4.50815 18.4038 4.61517 18.7975 4.61517 19.2294V21.1328C4.61517 21.5838 4.50624 21.9966 4.28838 22.3712C4.0667 22.7419 3.7724 23.0381 3.40548 23.2598C3.03856 23.4777 2.62386 23.5904 2.16139 23.5981ZM2.26459 18.3006L1.44475 18.3121L1.43328 22.1648H2.16139C2.45187 22.1648 2.69648 22.0635 2.89523 21.8609C3.09398 21.6583 3.19335 21.4156 3.19335 21.1328V19.2179C3.19335 18.9695 3.10162 18.7536 2.91816 18.5701C2.7347 18.3828 2.51684 18.293 2.26459 18.3006Z" fill="white"/>
<path d="M6.92562 23.6095H5.59553C5.55731 23.6095 5.5382 23.5904 5.5382 23.5522L5.54967 16.9534C5.54967 16.9228 5.56496 16.9075 5.59553 16.9075H6.91415C6.94473 16.9075 6.96002 16.9228 6.96002 16.9534L6.97148 23.5522C6.97148 23.5904 6.9562 23.6095 6.92562 23.6095Z" fill="white"/>
<path d="M10.1648 23.7242C9.74059 23.7242 9.35264 23.6172 9.00101 23.4031C8.6532 23.1891 8.3761 22.9024 8.16971 22.5432C7.96714 22.1801 7.86585 21.7768 7.86585 21.3335L7.87732 19.1377C7.87732 18.702 7.97669 18.3083 8.17544 17.9567C8.37419 17.6012 8.64747 17.3165 8.99528 17.1024C9.34691 16.8846 9.73676 16.7756 10.1648 16.7756C10.6006 16.7756 10.9885 16.8807 11.3287 17.091C11.6726 17.3012 11.9459 17.5859 12.1485 17.9452C12.3549 18.3006 12.4581 18.6981 12.4581 19.1377V19.6766C12.4581 19.7072 12.4428 19.7225 12.4122 19.7225H11.0936C11.063 19.7225 11.0477 19.7072 11.0477 19.6766V19.1377C11.0477 18.8778 10.9637 18.6542 10.7955 18.4669C10.6273 18.2796 10.4171 18.186 10.1648 18.186C9.88582 18.186 9.67179 18.2815 9.52273 18.4726C9.37366 18.6637 9.29913 18.8854 9.29913 19.1377V21.3335C9.29913 21.6201 9.38322 21.8552 9.55139 22.0386C9.71956 22.2183 9.92405 22.3081 10.1648 22.3081C10.4171 22.3081 10.6273 22.2087 10.7955 22.01C10.9637 21.8074 11.0477 21.5819 11.0477 21.3335V20.7888C11.0477 20.7582 11.063 20.743 11.0936 20.743H12.4237C12.4543 20.743 12.4696 20.7582 12.4696 20.7888V21.3335C12.4696 21.773 12.3664 22.1743 12.16 22.5374C11.9498 22.8967 11.6726 23.1853 11.3287 23.4031C10.9847 23.6172 10.5967 23.7242 10.1648 23.7242Z" fill="white"/>
<path d="M15.8292 23.6095H14.5048C14.4704 23.6095 14.4532 23.5904 14.4532 23.5522V18.3236H12.9282C12.89 18.3236 12.8709 18.3045 12.8709 18.2662L12.8823 16.9534C12.8823 16.9228 12.8976 16.9075 12.9282 16.9075H17.3886C17.4306 16.9075 17.4516 16.9228 17.4516 16.9534V18.2662C17.4516 18.3045 17.4364 18.3236 17.4058 18.3236H15.8636L15.875 23.5522C15.875 23.5904 15.8597 23.6095 15.8292 23.6095Z" fill="white"/>
<path d="M19.4124 23.6095H18.0823C18.0441 23.6095 18.025 23.5904 18.025 23.5522L18.0364 16.9534C18.0364 16.9228 18.0517 16.9075 18.0823 16.9075H19.4009C19.4315 16.9075 19.4468 16.9228 19.4468 16.9534L19.4582 23.5522C19.4582 23.5904 19.4429 23.6095 19.4124 23.6095Z" fill="white"/>
<path d="M22.6631 23.7242C22.2464 23.7242 21.8623 23.6172 21.5107 23.4031C21.1629 23.1891 20.882 22.9043 20.6679 22.5489C20.4577 22.1896 20.3526 21.7959 20.3526 21.3679L20.3641 19.1148C20.3641 18.679 20.4692 18.2873 20.6794 17.9395C20.8858 17.5878 21.1648 17.3069 21.5164 17.0967C21.8681 16.8827 22.2503 16.7756 22.6631 16.7756C23.0911 16.7756 23.4753 16.8807 23.8154 17.091C24.1594 17.3012 24.4346 17.584 24.641 17.9395C24.8512 18.2911 24.9563 18.6829 24.9563 19.1148L24.9678 21.3679C24.9678 21.7959 24.8646 22.1877 24.6582 22.5432C24.448 22.9024 24.169 23.1891 23.8211 23.4031C23.4733 23.6172 23.0873 23.7242 22.6631 23.7242ZM22.6631 22.3081C22.9 22.3081 23.1064 22.2126 23.2822 22.0214C23.4581 21.8265 23.546 21.6087 23.546 21.3679L23.5345 19.1148C23.5345 18.8548 23.4523 18.6351 23.288 18.4554C23.1236 18.2758 22.9153 18.186 22.6631 18.186C22.4223 18.186 22.2159 18.2739 22.0439 18.4497C21.8719 18.6255 21.7859 18.8472 21.7859 19.1148V21.3679C21.7859 21.624 21.8719 21.8456 22.0439 22.0329C22.2159 22.2164 22.4223 22.3081 22.6631 22.3081Z" fill="white"/>
<path d="M27.1349 23.6095H25.9596C25.8985 23.6095 25.8679 23.5828 25.8679 23.5293L25.8564 16.9992C25.8564 16.9381 25.887 16.9075 25.9481 16.9075H27.0088L28.9924 20.0665L28.9351 16.9992C28.9351 16.9381 28.9695 16.9075 29.0383 16.9075H30.2021C30.248 16.9075 30.2709 16.9381 30.2709 16.9992L30.2824 23.5407C30.2824 23.5866 30.2633 23.6095 30.2251 23.6095H29.1931L27.1578 20.7544L27.2438 23.5178C27.2438 23.5789 27.2075 23.6095 27.1349 23.6095Z" fill="white"/>
<path d="M30.9073 23.5522L32.3635 16.9534C32.3712 16.9228 32.3903 16.9075 32.4208 16.9075H34.1236C34.1542 16.9075 34.1733 16.9228 34.1809 16.9534L35.5798 23.5522C35.5836 23.5904 35.5683 23.6095 35.5339 23.6095H34.2325C34.1943 23.6095 34.1733 23.5904 34.1694 23.5522L34.0433 22.6922H32.4438L32.3176 23.5522C32.3138 23.5904 32.2947 23.6095 32.2603 23.6095H30.9532C30.9226 23.6095 30.9073 23.5904 30.9073 23.5522ZM33.2063 19.6078L32.6788 21.4367H33.8083L33.3267 19.6078L33.2579 19.1721L33.2063 19.6078Z" fill="white"/>
<path d="M37.6896 23.6095H36.3595C36.3289 23.6095 36.3136 23.5904 36.3136 23.5522L36.3366 16.9534C36.3366 16.9228 36.3519 16.9075 36.3824 16.9075H38.7559C39.1802 16.9075 39.5701 17.0107 39.9255 17.2171C40.281 17.4235 40.5638 17.7006 40.774 18.0484C40.988 18.3962 41.0951 18.7899 41.0951 19.2294C41.0951 19.5161 41.0511 19.776 40.9632 20.0091C40.8753 20.2423 40.7721 20.4391 40.6536 20.5996C40.539 20.7602 40.4338 20.8786 40.3383 20.9551C40.7625 21.4252 40.9747 21.9775 40.9747 22.612L40.9861 23.5522C40.9861 23.5904 40.967 23.6095 40.9288 23.6095H39.5987C39.5681 23.6095 39.5529 23.5981 39.5529 23.5751V22.612C39.5529 22.3291 39.4535 22.0845 39.2547 21.8781C39.056 21.6717 38.8114 21.5685 38.5209 21.5685H37.7469L37.7355 23.5522C37.7355 23.5904 37.7202 23.6095 37.6896 23.6095ZM38.7559 18.3121H37.7469V20.1582H38.7559C38.9967 20.1582 39.2108 20.0684 39.3981 19.8887C39.5892 19.7091 39.6847 19.4893 39.6847 19.2294C39.6847 18.981 39.593 18.7669 39.4095 18.5873C39.2261 18.4038 39.0082 18.3121 38.7559 18.3121Z" fill="white"/>
<path d="M44.426 23.6095H43.0787C43.052 23.6095 43.0386 23.5942 43.0386 23.5637L43.0501 20.227L41.4792 16.9534C41.4715 16.9228 41.483 16.9075 41.5136 16.9075H42.8207C42.859 16.9075 42.8819 16.9228 42.8895 16.9534L43.7552 18.6446L44.6381 16.9534C44.6458 16.9228 44.6649 16.9075 44.6955 16.9075H46.0141C46.0447 16.9075 46.0561 16.9228 46.0485 16.9534L44.4604 20.1811L44.4719 23.5637C44.4719 23.5942 44.4566 23.6095 44.426 23.6095Z" fill="white"/>
<path d="M48.0778 20.25C48.0778 22.183 49.6895 23.75 51.6778 23.75L53.598 23.75L53.7479 23.5348L53.7482 23.5343L53.7523 23.5282C53.7564 23.5218 53.7635 23.5108 53.7731 23.4952C53.7923 23.4639 53.8214 23.4144 53.8573 23.3469C53.9289 23.2118 54.0275 23.0048 54.1269 22.7282C54.3256 22.1755 54.5288 21.3436 54.5288 20.2501C54.5288 19.1567 54.3257 18.3247 54.1269 17.772C54.0274 17.4953 53.9289 17.2883 53.8573 17.1531C53.8214 17.0856 53.7923 17.036 53.7731 17.0048C53.7635 16.9892 53.7564 16.9782 53.7522 16.9718L53.7482 16.9656L53.7479 16.9652L53.5981 16.75L51.6778 16.75C49.6895 16.75 48.0778 18.317 48.0778 20.25Z" fill="white"/>
<path d="M54.537 16.75C54.5455 16.7655 54.5543 16.7819 54.5634 16.799C54.6508 16.9637 54.7643 17.2039 54.877 17.5171C55.1024 18.144 55.3234 19.062 55.3234 20.2502C55.3234 21.4383 55.1024 22.3563 54.8769 22.9831C54.7643 23.2963 54.6507 23.5365 54.5634 23.7011C54.5543 23.7182 54.5455 23.7345 54.537 23.75L56.4778 23.75C58.466 23.75 60.0778 22.183 60.0778 20.25C60.0778 18.317 58.466 16.75 56.4778 16.75L54.537 16.75Z" fill="#7821E7"/>
</svg>
